# xmcd
#
# Track frame offsets:
#	150
#	19425
#	36740
#	56642
#	75812
#	94732
#	114245
#	135007
#	153677
#	175100
#
# Disc length: 2666 seconds
#
# Revision: 14
# Processed by: cddbd v1.5.2PL0 Copyright (c) Steve Scherf et al.
# Submitted via: Jack! The Knife 20 Magnifico
#
DISCID=750a680a
DTITLE=Iron Maiden - No Prayer For The Dying
DYEAR=1990
DGENRE=Metal
TTITLE0=Tailgunner
TTITLE1=Holy Smoke
TTITLE2=No Prayer For The Dying
TTITLE3=Public Enema Number One
TTITLE4=Fates Warning
TTITLE5=The Assassin
TTITLE6=Run Silent Run Deep
TTITLE7=Hooks In You
TTITLE8=Bring Your Daughter... To The Slaughter
TTITLE9=Mother Russia
EXTD=Martin Birch and Steve Harris
EXTT0=Harris, Dickinson
EXTT1=Harris, Dickinson
EXTT2=Steve Harris
EXTT3=Murray, Dickinson
EXTT4=Murray, Harris
EXTT5=Steve Harris
EXTT6=Harris, Dickinson
EXTT7=Dickinson, Smith
EXTT8=Bruce Dickinson
EXTT9=Steve Harris
PLAYORDER=
